<svg xmlns="http://www.w3.org/2000/svg" viewBox="0 0 71.34 50"><defs><style>.cls-1{opacity:0.3;}.cls-2,.cls-3{fill:#fff;}.cls-3{fill-rule:evenodd;}</style></defs><g id="Layer_2" data-name="Layer 2"><g id="Layer_2-2" data-name="Layer 2"><g class="cls-1"><circle class="cls-2" cx="14.48" cy="9.6" r="1.16"/></g><g class="cls-1"><circle class="cls-2" cx="5.45" cy="16.72" r="0.76"/></g><g class="cls-1"><circle class="cls-2" cx="2.64" cy="12.25" r="1.04"/></g><g class="cls-1"><circle class="cls-2" cx="1.04" cy="10.49" r="1.04"/></g><g class="cls-1"><circle class="cls-2" cx="12.13" cy="7.67" r="1.27"/></g><g class="cls-1"><circle class="cls-2" cx="22.36" cy="18.49" r="1.27"/></g><g class="cls-1"><circle class="cls-2" cx="13.44" cy="24.78" r="1.27"/></g><g class="cls-1"><circle class="cls-2" cx="22.36" cy="5.92" r="1.27"/></g><g class="cls-1"><circle class="cls-2" cx="22.05" cy="1.62" r="1.6"/></g><g class="cls-1"><circle class="cls-2" cx="6.87" cy="14.87" r="1.43"/></g><g class="cls-1"><circle class="cls-2" cx="17.14" cy="14.88" r="1.57"/></g><g class="cls-1"><circle class="cls-2" cx="22.33" cy="24.6" r="1.05"/></g><g class="cls-1"><circle class="cls-2" cx="22.11" cy="21.46" r="1.35"/></g><g class="cls-1"><circle class="cls-2" cx="13.45" cy="15.71" r="1.49"/></g><g class="cls-1"><circle class="cls-2" cx="16.84" cy="11.47" r="1.35"/></g><g class="cls-1"><circle class="cls-2" cx="18.78" cy="1.29" r="1.14"/></g><g class="cls-1"><circle class="cls-2" cx="11.96" cy="11.04" r="1.27"/></g><g class="cls-1"><circle class="cls-2" cx="14.23" cy="3.95" r="0.76"/></g><g class="cls-1"><circle class="cls-2" cx="22.41" cy="12.72" r="0.76"/></g><g class="cls-1"><circle class="cls-2" cx="13.06" cy="18.43" r="0.76"/></g><g class="cls-1"><circle class="cls-2" cx="15.69" cy="25.88" r="0.76"/></g><g class="cls-1"><circle class="cls-2" cx="22.41" cy="3.95" r="0.51"/></g><g class="cls-1"><circle class="cls-2" cx="14.13" cy="12.79" r="1.13"/></g><g class="cls-1"><circle class="cls-2" cx="22.06" cy="10.32" r="1.27"/></g><g class="cls-1"><circle class="cls-2" cx="15.72" cy="18.09" r="1.36"/></g><g class="cls-1"><circle class="cls-2" cx="19.48" cy="27.26" r="1.17"/></g><g class="cls-1"><circle class="cls-2" cx="21.07" cy="15.41" r="1.67"/></g><g class="cls-1"><circle class="cls-2" cx="14.07" cy="21.53" r="1.87"/></g><g class="cls-1"><circle class="cls-2" cx="14.02" cy="31.52" r="2.13"/></g><g class="cls-1"><circle class="cls-2" cx="16.4" cy="37.48" r="1.6"/></g><g class="cls-1"><circle class="cls-2" cx="13.21" cy="47.48" r="1.34"/></g><g class="cls-1"><circle class="cls-2" cx="30.12" cy="47.07" r="1.83"/></g><g class="cls-1"><circle class="cls-2" cx="23.65" cy="43.71" r="0.98"/></g><g class="cls-1"><circle class="cls-2" cx="20.89" cy="47" r="1.4"/></g><g class="cls-1"><circle class="cls-2" cx="26.9" cy="45.23" r="1.09"/></g><g class="cls-1"><circle class="cls-2" cx="18.28" cy="44.79" r="1.71"/></g><g class="cls-1"><circle class="cls-2" cx="5.65" cy="47.32" r="1.57"/></g><g class="cls-1"><circle class="cls-2" cx="24.47" cy="47.31" r="1.48"/></g><g class="cls-1"><circle class="cls-2" cx="9.39" cy="46.8" r="2.14"/></g><g class="cls-1"><circle class="cls-2" cx="19.13" cy="19.12" r="1.76"/></g><g class="cls-1"><circle class="cls-2" cx="19.69" cy="12.52" r="1.37"/></g><g class="cls-1"><circle class="cls-2" cx="4.3" cy="14.23" r="1.13"/></g><g class="cls-1"><circle class="cls-2" cx="14.89" cy="1.43" r="1.12"/></g><g class="cls-1"><circle class="cls-2" cx="8.55" cy="5.13" r="1.32"/></g><g class="cls-1"><circle class="cls-2" cx="5.72" cy="7.53" r="1.47"/></g><g class="cls-1"><circle class="cls-2" cx="5.4" cy="11.49" r="1.63"/></g><g class="cls-1"><circle class="cls-2" cx="9.01" cy="8.62" r="1.66"/></g><g class="cls-1"><circle class="cls-2" cx="12.16" cy="1.65" r="1.46"/></g><g class="cls-1"><circle class="cls-2" cx="18.92" cy="7.98" r="2.33"/></g><g class="cls-1"><circle class="cls-2" cx="18.48" cy="23.62" r="2.33"/></g><g class="cls-1"><circle class="cls-2" cx="8.93" cy="12.29" r="1.69"/></g><g class="cls-1"><circle class="cls-2" cx="16.61" cy="3.84" r="1.44"/></g><g class="cls-1"><circle class="cls-2" cx="20.04" cy="4.38" r="1.26"/></g><g class="cls-1"><circle class="cls-2" cx="3.17" cy="9.25" r="1.11"/></g><g class="cls-1"><circle class="cls-2" cx="11.9" cy="4.85" r="1.54"/></g><g class="cls-1"><circle class="cls-2" cx="15.24" cy="6.74" r="1.34"/></g><g class="cls-1"><circle class="cls-2" cx="12.58" cy="41.91" r="1.16"/></g><g class="cls-1"><circle class="cls-2" cx="12.76" cy="34.85" r="0.76"/></g><g class="cls-1"><circle class="cls-2" cx="6.48" cy="44.79" r="0.76"/></g><g class="cls-1"><circle class="cls-2" cx="11.45" cy="39.97" r="0.76"/></g><g class="cls-1"><circle class="cls-2" cx="14.22" cy="40.12" r="0.61"/></g><g class="cls-1"><circle class="cls-2" cx="22.7" cy="45.52" r="0.61"/></g><g class="cls-1"><circle class="cls-2" cx="20.46" cy="33.26" r="1.27"/></g><g class="cls-1"><circle class="cls-2" cx="14.83" cy="34.91" r="1.14"/></g><g class="cls-1"><circle class="cls-2" cx="19.07" cy="41.93" r="1.14"/></g><g class="cls-1"><circle class="cls-2" cx="9.71" cy="43.24" r="1.14"/></g><g class="cls-1"><circle class="cls-2" cx="4.91" cy="43.51" r="0.87"/></g><g class="cls-1"><circle class="cls-2" cx="18.78" cy="39.3" r="1.14"/></g><g class="cls-1"><circle class="cls-2" cx="22.7" cy="41.38" r="1.05"/></g><g class="cls-1"><circle class="cls-2" cx="22.95" cy="32.8" r="0.66"/></g><g class="cls-1"><circle class="cls-2" cx="20.61" cy="40.2" r="0.66"/></g><g class="cls-1"><circle class="cls-2" cx="29.53" cy="42.69" r="0.66"/></g><g class="cls-1"><circle class="cls-2" cx="14.18" cy="45.18" r="0.66"/></g><g class="cls-1"><circle class="cls-2" cx="12.26" cy="44.39" r="1.27"/></g><g class="cls-1"><circle class="cls-2" cx="26.16" cy="41.53" r="2.11"/></g><g class="cls-1"><circle class="cls-2" cx="15.16" cy="43.31" r="1.11"/></g><g class="cls-1"><circle class="cls-2" cx="67.18" cy="1.33" r="1.31"/></g><g class="cls-1"><circle class="cls-2" cx="62.18" cy="1.43" r="1.43"/></g><g class="cls-1"><circle class="cls-2" cx="56.29" cy="1.8" r="1.69"/></g><g class="cls-1"><circle class="cls-2" cx="50.51" cy="1.97" r="1.35"/></g><g class="cls-1"><circle class="cls-2" cx="49.28" cy="4.2" r="0.94"/></g><g class="cls-1"><circle class="cls-2" cx="44.01" cy="1.58" r="1.35"/></g><g class="cls-1"><circle class="cls-2" cx="48.95" cy="6.82" r="1.45"/></g><g class="cls-1"><circle class="cls-2" cx="47.18" cy="4.77" r="0.84"/></g><g class="cls-1"><circle class="cls-2" cx="44.34" cy="4.2" r="0.82"/></g><g class="cls-1"><circle class="cls-2" cx="43.9" cy="16.64" r="1.55"/></g><g class="cls-1"><circle class="cls-2" cx="48.11" cy="24.48" r="1.73"/></g><g class="cls-1"><circle class="cls-2" cx="44.99" cy="26.37" r="1.39"/></g><g class="cls-1"><circle class="cls-2" cx="43.14" cy="11.91" r="1.35"/></g><g class="cls-1"><circle class="cls-2" cx="46.21" cy="12.98" r="1.49"/></g><g class="cls-1"><circle class="cls-2" cx="43.9" cy="14.17" r="0.52"/></g><g class="cls-1"><circle class="cls-2" cx="53.3" cy="20.74" r="1.15"/></g><g class="cls-1"><circle class="cls-2" cx="43.38" cy="24.37" r="0.8"/></g><g class="cls-1"><circle class="cls-2" cx="46.72" cy="15.75" r="1.2"/></g><g class="cls-1"><circle class="cls-2" cx="40.86" cy="14.56" r="1.85"/></g><g class="cls-1"><circle class="cls-2" cx="40.46" cy="18.25" r="1.67"/></g><g class="cls-1"><circle class="cls-2" cx="39.36" cy="27.1" r="1.68"/></g><g class="cls-1"><circle class="cls-2" cx="53.99" cy="17.78" r="1.49"/></g><g class="cls-1"><circle class="cls-2" cx="48.11" cy="21.16" r="1.22"/></g><g class="cls-1"><circle class="cls-2" cx="50.92" cy="20.04" r="0.99"/></g><g class="cls-1"><circle class="cls-2" cx="50.96" cy="22.41" r="1.22"/></g><g class="cls-1"><circle class="cls-2" cx="64.19" cy="31.68" r="2.19"/></g><g class="cls-1"><circle class="cls-2" cx="67.03" cy="28.39" r="1.52"/></g><g class="cls-1"><circle class="cls-2" cx="64.44" cy="42.74" r="0.92"/></g><g class="cls-1"><circle class="cls-2" cx="65.81" cy="40.77" r="0.84"/></g><g class="cls-1"><circle class="cls-2" cx="63.12" cy="40.72" r="1.18"/></g><g class="cls-1"><circle class="cls-2" cx="65.15" cy="38.62" r="1.19"/></g><g class="cls-1"><circle class="cls-2" cx="65.87" cy="35.58" r="1.49"/></g><g class="cls-1"><circle class="cls-2" cx="39.11" cy="41.38" r="1.16"/></g><g class="cls-1"><circle class="cls-2" cx="41.37" cy="38.86" r="1.86"/></g><g class="cls-1"><circle class="cls-2" cx="47.1" cy="41.38" r="1.1"/></g><g class="cls-1"><circle class="cls-2" cx="44.07" cy="41.8" r="1.6"/></g><g class="cls-1"><circle class="cls-2" cx="49.8" cy="40.68" r="1.35"/></g><g class="cls-1"><circle class="cls-2" cx="60.2" cy="32.01" r="1.35"/></g><g class="cls-1"><circle class="cls-2" cx="41.84" cy="36.07" r="0.65"/></g><g class="cls-1"><circle class="cls-2" cx="54.41" cy="43.82" r="1.96"/></g><g class="cls-1"><circle class="cls-2" cx="52.81" cy="40.51" r="1.19"/></g><g class="cls-1"><circle class="cls-2" cx="48.19" cy="46.52" r="1.51"/></g><g class="cls-1"><circle class="cls-2" cx="42.15" cy="44.01" r="0.79"/></g><g class="cls-1"><circle class="cls-2" cx="48.8" cy="43.49" r="1.3"/></g><g class="cls-1"><circle class="cls-2" cx="46.34" cy="43.66" r="0.92"/></g><g class="cls-1"><circle class="cls-2" cx="44.18" cy="37.97" r="0.61"/></g><g class="cls-1"><circle class="cls-2" cx="58.55" cy="37.36" r="1.26"/></g><g class="cls-1"><circle class="cls-2" cx="59.56" cy="28.83" r="1.49"/></g><g class="cls-1"><circle class="cls-2" cx="63.18" cy="27.91" r="1.24"/></g><g class="cls-1"><circle class="cls-2" cx="57.6" cy="25.65" r="1.96"/></g><g class="cls-1"><circle class="cls-2" cx="53.95" cy="24.37" r="1.44"/></g><g class="cls-1"><circle class="cls-2" cx="51.18" cy="24.67" r="0.97"/></g><g class="cls-1"><circle class="cls-2" cx="56.28" cy="22.58" r="0.97"/></g><g class="cls-1"><circle class="cls-2" cx="40.31" cy="23.62" r="1.82"/></g><g class="cls-1"><circle class="cls-2" cx="44.17" cy="20.85" r="2.39"/></g><g class="cls-1"><circle class="cls-2" cx="46.37" cy="9.4" r="1.68"/></g><g class="cls-1"><circle class="cls-2" cx="57.29" cy="5.37" r="1.31"/></g><g class="cls-1"><circle class="cls-2" cx="59.92" cy="3.72" r="1.44"/></g><g class="cls-1"><circle class="cls-2" cx="64.95" cy="3.24" r="1.1"/></g><g class="cls-1"><circle class="cls-2" cx="51.86" cy="5.37" r="1.35"/></g><g class="cls-1"><circle class="cls-2" cx="62.98" cy="5.89" r="1.87"/></g><g class="cls-1"><circle class="cls-2" cx="67.12" cy="6.15" r="1.41"/></g><g class="cls-1"><circle class="cls-2" cx="59.44" cy="1.33" r="0.96"/></g><g class="cls-1"><circle class="cls-2" cx="53.04" cy="2.63" r="0.96"/></g><g class="cls-1"><circle class="cls-2" cx="51.16" cy="17.71" r="1.02"/></g><g class="cls-1"><circle class="cls-2" cx="60.93" cy="26.05" r="0.98"/></g><g class="cls-1"><circle class="cls-2" cx="65.87" cy="25.64" r="0.71"/></g><g class="cls-1"><circle class="cls-2" cx="51.04" cy="45.28" r="1.19"/></g><g class="cls-1"><circle class="cls-2" cx="59.56" cy="22" r="1.94"/></g><g class="cls-1"><circle class="cls-2" cx="63.65" cy="20.32" r="1.88"/></g><g class="cls-1"><circle class="cls-2" cx="69.74" cy="31.33" r="1.61"/></g><g class="cls-1"><circle class="cls-2" cx="45.62" cy="39.38" r="1.05"/></g><g class="cls-1"><circle class="cls-2" cx="68.61" cy="38.33" r="1.89"/></g><g class="cls-1"><circle class="cls-2" cx="69.74" cy="34.97" r="1.46"/></g><g class="cls-1"><circle class="cls-2" cx="63.3" cy="24.15" r="1.75"/></g><g class="cls-1"><circle class="cls-2" cx="51.44" cy="42.81" r="1.01"/></g><g class="cls-1"><circle class="cls-2" cx="59.56" cy="34.85" r="1.01"/></g><g class="cls-1"><circle class="cls-2" cx="48.32" cy="18.15" r="1.42"/></g><g class="cls-1"><circle class="cls-2" cx="42.5" cy="27.59" r="1.2"/></g><g class="cls-1"><circle class="cls-2" cx="39.21" cy="21.03" r="0.75"/></g><g class="cls-1"><circle class="cls-2" cx="41.89" cy="3.63" r="1.43"/></g><g class="cls-1"><circle class="cls-2" cx="53.65" cy="0.82" r="0.76"/></g><g class="cls-1"><circle class="cls-2" cx="22.36" cy="38.68" r="1.33"/></g><g class="cls-1"><circle class="cls-2" cx="19.09" cy="30.67" r="1.34"/></g><g class="cls-1"><circle class="cls-2" cx="7.46" cy="42.83" r="1.1"/></g><g class="cls-1"><circle class="cls-2" cx="8.64" cy="40.42" r="1.35"/></g><g class="cls-1"><circle class="cls-2" cx="5.49" cy="40.72" r="1.45"/></g><g class="cls-1"><circle class="cls-2" cx="16.39" cy="40.95" r="1.37"/></g><g class="cls-1"><circle class="cls-2" cx="13.26" cy="37.85" r="1.31"/></g><g class="cls-1"><circle class="cls-2" cx="19.46" cy="36.58" r="1.35"/></g><g class="cls-1"><circle class="cls-2" cx="15.66" cy="46.52" r="0.94"/></g><g class="cls-1"><circle class="cls-2" cx="21.21" cy="43.6" r="1.08"/></g><g class="cls-1"><circle class="cls-2" cx="30.48" cy="40.64" r="1.46"/></g><g class="cls-1"><circle class="cls-2" cx="22.25" cy="35.6" r="1.36"/></g><g class="cls-1"><circle class="cls-2" cx="17.57" cy="34.14" r="1.36"/></g><g class="cls-1"><circle class="cls-2" cx="22.04" cy="30.2" r="1.41"/></g><g class="cls-1"><circle class="cls-2" cx="13.1" cy="27.72" r="1.15"/></g><g class="cls-1"><circle class="cls-2" cx="16.65" cy="28.48" r="1.53"/></g><g class="cls-1"><circle class="cls-2" cx="28.9" cy="44.54" r="0.55"/></g><g class="cls-1"><circle class="cls-2" cx="30.7" cy="44.06" r="0.95"/></g><g class="cls-1"><circle class="cls-2" cx="55.31" cy="48.4" r="1.6"/></g><g class="cls-1"><circle class="cls-2" cx="43.58" cy="46.47" r="1.75"/></g><g class="cls-1"><circle class="cls-2" cx="40.86" cy="46.47" r="0.61"/></g><g class="cls-1"><circle class="cls-2" cx="65.58" cy="44.8" r="1.14"/></g><g class="cls-1"><circle class="cls-2" cx="68.09" cy="41.52" r="1.05"/></g><g class="cls-1"><circle class="cls-2" cx="67.38" cy="43.41" r="0.66"/></g><g class="cls-1"><circle class="cls-2" cx="59.17" cy="47.29" r="2.11"/></g><g class="cls-1"><circle class="cls-2" cx="56.22" cy="39.81" r="1.57"/></g><g class="cls-1"><circle class="cls-2" cx="39.47" cy="44.47" r="1.39"/></g><g class="cls-1"><circle class="cls-2" cx="41.52" cy="42.37" r="0.85"/></g><g class="cls-1"><circle class="cls-2" cx="52.63" cy="47" r="0.91"/></g><g class="cls-1"><circle class="cls-2" cx="37.19" cy="43.07" r="0.97"/></g><g class="cls-1"><circle class="cls-2" cx="62.99" cy="46.25" r="1.46"/></g><g class="cls-1"><circle class="cls-2" cx="62.01" cy="37.43" r="1.8"/></g><g class="cls-1"><circle class="cls-2" cx="61.69" cy="34.27" r="0.76"/></g><g class="cls-1"><circle class="cls-2" cx="67.26" cy="32.94" r="0.76"/></g><g class="cls-1"><circle class="cls-2" cx="63.04" cy="9.1" r="0.76"/></g><g class="cls-1"><circle class="cls-2" cx="59.81" cy="40.72" r="1.65"/></g><g class="cls-1"><circle class="cls-2" cx="49.1" cy="13.58" r="0.98"/></g><g class="cls-1"><circle class="cls-2" cx="67.18" cy="3.63" r="0.8"/></g><g class="cls-1"><circle class="cls-2" cx="45.05" cy="6.11" r="1.09"/></g><g class="cls-1"><circle class="cls-2" cx="41.06" cy="5.66" r="0.5"/></g><g class="cls-1"><circle class="cls-2" cx="65.18" cy="8.47" r="0.91"/></g><g class="cls-1"><circle class="cls-2" cx="61.69" cy="43.49" r="1.13"/></g><g class="cls-1"><circle class="cls-2" cx="61.04" cy="8.61" r="1.09"/></g><g class="cls-1"><circle class="cls-2" cx="54.6" cy="4.43" r="1.05"/></g><g class="cls-1"><circle class="cls-2" cx="58.16" cy="43.58" r="1.4"/></g><g class="cls-1"><circle class="cls-2" cx="42.13" cy="8.24" r="2.14"/></g><g class="cls-1"><circle class="cls-2" cx="57.28" cy="17.27" r="1.16"/></g><g class="cls-1"><circle class="cls-2" cx="56.37" cy="20.11" r="1.2"/></g><g class="cls-1"><circle class="cls-2" cx="70.09" cy="28.39" r="0.76"/></g><g class="cls-1"><circle class="cls-2" cx="49.21" cy="15.75" r="0.76"/></g><g class="cls-1"><circle class="cls-2" cx="49.51" cy="9.1" r="0.61"/></g><g class="cls-1"><circle class="cls-2" cx="69.33" cy="26.43" r="0.87"/></g><g class="cls-1"><circle class="cls-2" cx="54.75" cy="7.53" r="1.71"/></g><g class="cls-1"><circle class="cls-2" cx="60.1" cy="6.55" r="0.66"/></g><g class="cls-1"><circle class="cls-2" cx="64.85" cy="1.14" r="0.66"/></g><g class="cls-1"><circle class="cls-2" cx="41.55" cy="0.7" r="0.66"/></g><g class="cls-1"><circle class="cls-2" cx="48.95" cy="11.16" r="1.27"/></g><g class="cls-1"><circle class="cls-2" cx="67.49" cy="8.78" r="1.11"/></g><g class="cls-1"><circle class="cls-2" cx="66.61" cy="21.78" r="1.1"/></g><g class="cls-1"><circle class="cls-2" cx="68.03" cy="24.37" r="1.35"/></g><g class="cls-1"><circle class="cls-2" cx="60.2" cy="18.15" r="1.45"/></g><g class="cls-1"><circle class="cls-2" cx="58.2" cy="8.26" r="1.37"/></g><g class="cls-1"><circle class="cls-2" cx="40.46" cy="11.48" r="0.94"/></g><g class="cls-1"><circle class="cls-2" cx="51.56" cy="8.61" r="1.08"/></g><g class="cls-1"><circle class="cls-2" cx="47.28" cy="1.84" r="1.78"/></g><g class="cls-1"><circle class="cls-2" cx="22.32" cy="27" r="1.34"/></g><path class="cls-3" d="M18.7,21.38a1.1,1.1,0,0,1,.54-.78.82.82,0,0,1,.94.16,1.5,1.5,0,0,0-1.49.63Z"/><path class="cls-3" d="M23.63,20.16A.86.86,0,0,1,25.2,20,1.2,1.2,0,0,0,23.63,20.16Z"/><path class="cls-3" d="M10,17.14l.08,0c3.15-1.41,6.09,1.59,6.57,4.83-.77-1.44-1.78-2.73-3.34-3l-.26,0a2.78,2.78,0,0,0-1.74.43,4.71,4.71,0,0,1,1.59.16,5.59,5.59,0,0,1,1.67.63A6.16,6.16,0,0,1,16.64,22a1.23,1.23,0,0,1,0,.19,5.28,5.28,0,0,0-2.2-5.37,4.5,4.5,0,0,0-4.53-.71l-.1,0a4.12,4.12,0,0,0-.74.46,8.83,8.83,0,0,0-2.44,4.71,8.1,8.1,0,0,1,2.84-3.85l.08-.05Z"/><path class="cls-3" d="M6.63,21.32l0-.05,0,0Z"/><path class="cls-3" d="M9.76,18.58h0v0Z"/><path class="cls-3" d="M14.12,22l-.09,0a6.51,6.51,0,0,1-4.27-3.35c.39,2.45,1.94,4.14,4,4.21h.09A5.23,5.23,0,0,0,16.43,22,6.75,6.75,0,0,1,14.12,22Z"/><path class="cls-3" d="M15.26,24.46h0l0,0,.07-.06Z"/><path class="cls-3" d="M14.07,29.79a6.75,6.75,0,0,1,1.14-5.28,6.09,6.09,0,0,0-1.74,6,6.67,6.67,0,0,0,1.59,2.86A8.27,8.27,0,0,1,14,32.64a11.23,11.23,0,0,1-3.06-3.78,11,11,0,0,1-.65-7,9.19,9.19,0,0,0-.76,3.39,9.22,9.22,0,0,0,3.58,8.28,9.08,9.08,0,0,0,11.19-.75A8.11,8.11,0,0,1,20,34.43,5.65,5.65,0,0,1,14.07,29.79Z"/><path class="cls-3" d="M22.88,30.82a4.32,4.32,0,0,1-2.58-.29,2.89,2.89,0,0,1-.44-.27c-.15-.08-.28-.17-.42-.26s-.26-.21-.38-.33v0l.27.38c.1.13.21.24.32.36a3.7,3.7,0,0,0,.28.28l.31.25.35.23.36.16.35.13.37.08a3,3,0,0,0,1.71-.24A3.94,3.94,0,0,1,22.88,30.82Z"/><path class="cls-3" d="M27.79,17.58h0A2.66,2.66,0,0,0,27,19.67a9.46,9.46,0,0,0-3.18-3.29,6,6,0,0,1,6.09.47,2.8,2.8,0,0,0-2.15.73Zm3.13-.65a5.9,5.9,0,0,0-.51-.49,5.82,5.82,0,0,0-7-.3l-.16-.09L23,15.93c-.16-.08-.31-.16-.48-.23l-.24-.1a7.25,7.25,0,0,0-5.38-.12l-.21.1a6.43,6.43,0,0,0-1.5,1,12.65,12.65,0,0,1,1.59-.51L17,16a8,8,0,0,1,4.64.23l.26.1a6.9,6.9,0,0,1,.75.3l.08,0-.15.15a4.37,4.37,0,0,0-.53.6A6.08,6.08,0,0,1,22.7,17l.26-.16a9.91,9.91,0,0,1,4.28,4.38c0,.08.08.16.13.24s.16.33.23.5a1.86,1.86,0,0,1,.1.25A4.24,4.24,0,0,1,28,23.5l.06.05A7.13,7.13,0,0,0,28,22.27c0-.08,0-.16,0-.23a5.34,5.34,0,0,0-.21-.81,2.41,2.41,0,0,0-.08-.25,9.75,9.75,0,0,0-.63-1.3c.79-1.53,2.63-2.72,4.34-2.2C31.23,17.29,31.08,17.11,30.92,16.93Z"/><path class="cls-3" d="M22,17.52l.05-.07h0Z"/><path class="cls-3" d="M20.81,23.19a.79.79,0,1,0-1.58,0,.79.79,0,1,0,1.58,0Z"/><path class="cls-3" d="M25.33,21.85a.63.63,0,0,0-.61-.64.63.63,0,0,0-.61.64.62.62,0,0,0,.61.64A.63.63,0,0,0,25.33,21.85Z"/><path class="cls-3" d="M25.5,28.28a.84.84,0,0,0-1-.63.87.87,0,1,0,1,.63Z"/><path class="cls-3" d="M28.13,27.46a.63.63,0,1,0-1.22.33.63.63,0,1,0,1.22-.33Z"/><path class="cls-3" d="M24.67,23.86c2.68,0,4.53,1.5,4.53,4a3.22,3.22,0,0,1-3.39,3.34,3,3,0,0,1-3.09-3A3.07,3.07,0,0,1,25.19,25a3.29,3.29,0,0,0-2.14.4,3.33,3.33,0,0,0-1.6,2.88,4.14,4.14,0,0,0,4.4,4.21,4.47,4.47,0,0,0,4.6-4.58,5,5,0,0,0-5.32-5.15A5.73,5.73,0,0,0,19,28.53C19.92,25.54,22,23.86,24.67,23.86Z"/><polygon class="cls-3" points="33.18 31.55 33.18 25.87 31.15 25.87 31.15 24.72 36.57 24.72 36.57 25.87 34.56 25.87 34.56 31.55 33.18 31.55"/><path class="cls-3" d="M37.91,31.55V24.72h2.21a8,8,0,0,1,1.64.1,1.73,1.73,0,0,1,1,.67,2.13,2.13,0,0,1,.4,1.33,2.2,2.2,0,0,1-.23,1.05,1.91,1.91,0,0,1-1.29,1,7.45,7.45,0,0,1-1.43.1h-.9v2.58Zm1.38-5.68v1.95H40a3.54,3.54,0,0,0,1.09-.11.91.91,0,0,0,.43-.34,1,1,0,0,0,.16-.53.92.92,0,0,0-.22-.62,1,1,0,0,0-.56-.3,6.44,6.44,0,0,0-1-.05Z"/><path class="cls-3" d="M50.06,31.55H48.57L48,30H45.25l-.57,1.56H43.22l2.65-6.83h1.46l2.73,6.83Zm-2.52-2.71-.95-2.53-.93,2.53Z"/><path class="cls-3" d="M51.56,24.72h4.72v5.67h.6V33H55.72V31.55H51.44V33H50.29V30.39h.58a6.36,6.36,0,0,0,.56-2,26.07,26.07,0,0,0,.13-2.92v-.72Zm1.32,1.15a13.07,13.07,0,0,1-.57,4.52h2.58V25.87Z"/><path class="cls-3" d="M64.27,31.55H62.78L62.19,30H59.45l-.57,1.56H57.42l2.65-6.83h1.46l2.74,6.83Zm-2.53-2.71-1-2.53-.92,2.53Z"/></g></g></svg>